<svg xmlns="http://www.w3.org/2000/svg" xmlns:xlink="http://www.w3.org/1999/xlink" width="500" zoomAndPan="magnify" viewBox="0 0 375 374.999991" height="500" preserveAspectRatio="xMidYMid meet" version="1.0"><defs><g/><clipPath id="16e935ae1e"><path d="M 65.644531 172 L 89 172 L 89 191.269531 L 65.644531 191.269531 Z M 65.644531 172 " clip-rule="nonzero"/></clipPath><clipPath id="ea92c9b4c5"><path d="M 84 169.519531 L 120.394531 169.519531 L 120.394531 191.269531 L 84 191.269531 Z M 84 169.519531 " clip-rule="nonzero"/></clipPath></defs><g clip-path="url(#16e935ae1e)"><path fill="#5225bf" d="M 88.015625 175.011719 C 86.710938 176.480469 85.660156 178.109375 84.863281 179.902344 C 83.488281 179.097656 82 178.695312 80.402344 178.695312 C 80.035156 178.695312 79.664062 178.714844 79.296875 178.761719 C 78.929688 178.804688 78.570312 178.875 78.210938 178.964844 C 77.851562 179.054688 77.5 179.164062 77.15625 179.296875 C 76.8125 179.429688 76.476562 179.585938 76.152344 179.757812 C 75.824219 179.933594 75.511719 180.128906 75.210938 180.34375 C 74.910156 180.554688 74.625 180.785156 74.351562 181.035156 C 74.078125 181.285156 73.824219 181.550781 73.585938 181.828125 C 73.347656 182.109375 73.125 182.402344 72.925781 182.710938 C 72.722656 183.019531 72.539062 183.339844 72.378906 183.667969 C 72.214844 184 72.074219 184.339844 71.957031 184.6875 C 71.835938 185.035156 71.738281 185.386719 71.664062 185.746094 C 71.589844 186.105469 71.535156 186.46875 71.507812 186.835938 C 71.476562 187.203125 71.472656 187.570312 71.488281 187.933594 C 71.503906 188.300781 71.542969 188.667969 71.605469 189.027344 C 71.667969 189.390625 71.75 189.75 71.855469 190.101562 C 71.964844 190.453125 72.09375 190.796875 72.242188 191.132812 L 66.089844 191.132812 C 65.953125 190.59375 65.847656 190.046875 65.773438 189.496094 C 65.699219 188.945312 65.660156 188.394531 65.648438 187.839844 C 65.636719 187.28125 65.660156 186.730469 65.710938 186.175781 C 65.765625 185.621094 65.847656 185.074219 65.964844 184.53125 C 66.082031 183.988281 66.226562 183.453125 66.402344 182.925781 C 66.582031 182.398438 66.785156 181.882812 67.023438 181.378906 C 67.257812 180.875 67.523438 180.386719 67.8125 179.914062 C 68.105469 179.441406 68.421875 178.984375 68.765625 178.546875 C 69.113281 178.109375 69.480469 177.691406 69.871094 177.292969 C 70.261719 176.898438 70.675781 176.523438 71.109375 176.175781 C 71.542969 175.824219 71.996094 175.5 72.46875 175.203125 C 72.941406 174.902344 73.425781 174.632812 73.929688 174.386719 C 74.433594 174.144531 74.945312 173.929688 75.472656 173.746094 C 76 173.558594 76.535156 173.402344 77.082031 173.277344 C 77.625 173.152344 78.175781 173.058594 78.730469 172.996094 C 79.285156 172.933594 79.84375 172.902344 80.402344 172.902344 C 83.140625 172.902344 85.675781 173.605469 88.015625 175.011719 Z M 88.015625 175.011719 " fill-opacity="1" fill-rule="nonzero"/></g><g clip-path="url(#ea92c9b4c5)"><path fill="#5225bf" d="M 102.375 169.660156 C 101.707031 169.664062 101.046875 169.699219 100.382812 169.773438 C 99.722656 169.847656 99.066406 169.957031 98.417969 170.101562 C 97.769531 170.25 97.132812 170.429688 96.503906 170.644531 C 95.875 170.863281 95.257812 171.113281 94.65625 171.394531 C 94.058594 171.679688 93.472656 171.996094 92.90625 172.34375 C 92.34375 172.691406 91.796875 173.070312 91.273438 173.476562 C 90.75 173.882812 90.25 174.320312 89.777344 174.78125 C 89.300781 175.246094 88.851562 175.730469 88.433594 176.246094 C 88.011719 176.757812 87.621094 177.289062 87.257812 177.84375 C 86.898438 178.398438 86.566406 178.972656 86.269531 179.5625 C 85.972656 180.15625 85.707031 180.761719 85.476562 181.382812 C 85.25 182 85.054688 182.632812 84.894531 183.273438 C 84.734375 183.914062 84.609375 184.5625 84.523438 185.21875 C 84.433594 185.875 84.382812 186.53125 84.371094 187.195312 C 84.355469 187.855469 84.378906 188.515625 84.4375 189.171875 C 84.496094 189.832031 84.59375 190.484375 84.722656 191.132812 L 91.679688 191.132812 C 91.539062 190.710938 91.421875 190.285156 91.328125 189.851562 C 91.238281 189.414062 91.171875 188.976562 91.132812 188.535156 C 91.09375 188.09375 91.078125 187.652344 91.09375 187.207031 C 91.105469 186.765625 91.144531 186.324219 91.210938 185.882812 C 91.277344 185.445312 91.371094 185.011719 91.488281 184.585938 C 91.605469 184.15625 91.75 183.738281 91.917969 183.324219 C 92.082031 182.914062 92.277344 182.515625 92.492188 182.125 C 92.707031 181.738281 92.945312 181.363281 93.207031 181.003906 C 93.464844 180.644531 93.746094 180.296875 94.046875 179.972656 C 94.351562 179.644531 94.667969 179.335938 95.007812 179.046875 C 95.347656 178.757812 95.699219 178.488281 96.070312 178.238281 C 96.441406 177.992188 96.824219 177.765625 97.222656 177.566406 C 97.621094 177.363281 98.027344 177.183594 98.445312 177.027344 C 98.867188 176.875 99.292969 176.746094 99.726562 176.640625 C 100.160156 176.535156 100.597656 176.457031 101.042969 176.40625 C 101.484375 176.355469 101.929688 176.328125 102.378906 176.328125 C 102.824219 176.328125 103.269531 176.355469 103.710938 176.40625 C 104.15625 176.457031 104.59375 176.535156 105.027344 176.640625 C 105.460938 176.746094 105.890625 176.875 106.308594 177.027344 C 106.726562 177.183594 107.132812 177.363281 107.53125 177.566406 C 107.929688 177.765625 108.3125 177.992188 108.683594 178.238281 C 109.054688 178.488281 109.40625 178.757812 109.746094 179.046875 C 110.085938 179.335938 110.402344 179.644531 110.707031 179.972656 C 111.007812 180.296875 111.289062 180.644531 111.546875 181.003906 C 111.808594 181.363281 112.046875 181.738281 112.261719 182.125 C 112.476562 182.515625 112.671875 182.914062 112.839844 183.324219 C 113.007812 183.738281 113.148438 184.15625 113.265625 184.585938 C 113.382812 185.011719 113.476562 185.445312 113.542969 185.882812 C 113.609375 186.324219 113.648438 186.765625 113.660156 187.207031 C 113.675781 187.652344 113.660156 188.09375 113.621094 188.535156 C 113.582031 188.976562 113.515625 189.414062 113.425781 189.851562 C 113.332031 190.285156 113.214844 190.710938 113.074219 191.132812 L 120.035156 191.132812 C 120.167969 190.484375 120.261719 189.832031 120.324219 189.171875 C 120.382812 188.511719 120.40625 187.851562 120.390625 187.191406 C 120.375 186.53125 120.324219 185.871094 120.238281 185.21875 C 120.148438 184.5625 120.027344 183.914062 119.867188 183.269531 C 119.707031 182.628906 119.511719 181.996094 119.28125 181.378906 C 119.050781 180.757812 118.785156 180.152344 118.488281 179.558594 C 118.191406 178.96875 117.859375 178.394531 117.5 177.839844 C 117.136719 177.285156 116.746094 176.75 116.324219 176.238281 C 115.902344 175.726562 115.457031 175.242188 114.980469 174.777344 C 114.503906 174.316406 114.003906 173.878906 113.480469 173.472656 C 112.957031 173.0625 112.410156 172.6875 111.84375 172.339844 C 111.277344 171.992188 110.695312 171.675781 110.09375 171.390625 C 109.492188 171.109375 108.878906 170.859375 108.25 170.644531 C 107.621094 170.425781 106.980469 170.246094 106.332031 170.101562 C 105.679688 169.953125 105.027344 169.84375 104.363281 169.773438 C 103.703125 169.699219 103.039062 169.660156 102.375 169.660156 Z M 102.375 169.660156 " fill-opacity="1" fill-rule="nonzero"/></g><g fill="#000000" fill-opacity="1"><g transform="translate(126.739597, 184.151515)"><g><path d="M 10.25 0.503906 C 15.503906 0.503906 19.433594 -3.363281 19.433594 -8.492188 C 19.433594 -13.617188 15.503906 -17.453125 10.25 -17.453125 C 5 -17.453125 1.070312 -13.617188 1.070312 -8.492188 C 1.070312 -3.363281 5 0.503906 10.25 0.503906 Z M 10.25 -3.835938 C 7.609375 -3.835938 5.722656 -5.722656 5.722656 -8.492188 C 5.722656 -11.226562 7.609375 -13.144531 10.25 -13.144531 C 12.894531 -13.144531 14.78125 -11.226562 14.78125 -8.492188 C 14.78125 -5.722656 12.894531 -3.835938 10.25 -3.835938 Z M 10.25 -3.835938 "/></g></g></g><g fill="#000000" fill-opacity="1"><g transform="translate(152.71229, 184.151515)"><g><path d="M 11.855469 -17.359375 C 9.558594 -17.359375 7.515625 -16.382812 6.226562 -14.875 L 5.347656 -16.980469 L 2.203125 -16.980469 L 2.203125 0 L 6.792969 0 L 6.792969 -8.898438 C 6.792969 -11.636719 8.238281 -13.332031 10.597656 -13.332031 C 12.578125 -13.332031 13.554688 -12.105469 13.554688 -9.527344 L 13.554688 0 L 18.144531 0 L 18.144531 -10.285156 C 18.144531 -14.589844 15.722656 -17.359375 11.855469 -17.359375 Z M 11.855469 -17.359375 "/></g></g></g><g fill="#000000" fill-opacity="1"><g transform="translate(178.307683, 184.151515)"><g><path d="M 9.9375 0.503906 C 14.75 0.503906 17.925781 -2.578125 17.925781 -7.171875 L 17.925781 -16.980469 L 13.332031 -16.980469 L 13.332031 -7.671875 C 13.332031 -5.28125 12.074219 -3.835938 9.9375 -3.835938 C 7.832031 -3.835938 6.542969 -5.25 6.542969 -7.671875 L 6.542969 -16.980469 L 1.949219 -16.980469 L 1.949219 -7.171875 C 1.949219 -2.578125 5.15625 0.503906 9.9375 0.503906 Z M 9.9375 0.503906 "/></g></g></g><g fill="#000000" fill-opacity="1"><g transform="translate(203.651544, 184.151515)"><g><path d="M 14.625 0 L 19.9375 0 L 15.0625 -8.300781 C 17.515625 -9.496094 19.089844 -11.824219 19.089844 -14.71875 C 19.089844 -18.960938 15.785156 -22.011719 11.382812 -22.011719 L 2.515625 -22.011719 L 2.515625 0 L 7.265625 0 L 7.265625 -7.484375 L 10.316406 -7.484375 Z M 7.265625 -17.609375 L 11.070312 -17.609375 C 13.082031 -17.609375 14.246094 -16.382812 14.246094 -14.75 C 14.246094 -13.082031 13.082031 -11.886719 11.070312 -11.886719 L 7.265625 -11.886719 Z M 7.265625 -17.609375 "/></g></g></g><g fill="#000000" fill-opacity="1"><g transform="translate(229.87577, 184.151515)"><g><path d="M 18.679688 -8.523438 C 18.679688 -13.429688 15.09375 -17.453125 9.875 -17.453125 C 4.84375 -17.453125 1.070312 -13.585938 1.070312 -8.492188 C 1.070312 -3.394531 4.875 0.503906 9.875 0.503906 C 13.835938 0.503906 17.074219 -1.855469 18.300781 -5.566406 L 13.492188 -5.566406 C 12.800781 -4.339844 11.476562 -3.585938 9.875 -3.585938 C 7.640625 -3.585938 6.132812 -4.875 5.722656 -7.203125 L 18.585938 -7.203125 C 18.648438 -7.640625 18.679688 -8.082031 18.679688 -8.523438 Z M 9.875 -13.523438 C 11.949219 -13.523438 13.429688 -12.390625 14.089844 -10.316406 L 5.847656 -10.316406 C 6.382812 -12.328125 7.832031 -13.523438 9.875 -13.523438 Z M 9.875 -13.523438 "/></g></g></g><g fill="#000000" fill-opacity="1"><g transform="translate(255.062429, 184.151515)"><g><path d="M 11.855469 -17.359375 C 9.558594 -17.359375 7.515625 -16.382812 6.226562 -14.875 L 5.347656 -16.980469 L 2.203125 -16.980469 L 2.203125 0 L 6.792969 0 L 6.792969 -8.898438 C 6.792969 -11.636719 8.238281 -13.332031 10.597656 -13.332031 C 12.578125 -13.332031 13.554688 -12.105469 13.554688 -9.527344 L 13.554688 0 L 18.144531 0 L 18.144531 -10.285156 C 18.144531 -14.589844 15.722656 -17.359375 11.855469 -17.359375 Z M 11.855469 -17.359375 "/></g></g></g><g fill="#000000" fill-opacity="1"><g transform="translate(280.657825, 184.151515)"><g><path d="M 10.503906 -4.089844 C 8.804688 -4.089844 7.863281 -5.03125 7.863281 -6.667969 L 7.863281 -13.269531 L 12.484375 -13.269531 L 12.484375 -16.980469 L 7.800781 -16.980469 L 7.800781 -21.382812 L 6.917969 -21.382812 L 0.21875 -14.277344 L 0.21875 -13.269531 L 3.269531 -13.269531 L 3.269531 -6.039062 C 3.269531 -2.296875 5.566406 0 9.308594 0 L 12.578125 0 L 12.578125 -4.089844 Z M 10.503906 -4.089844 "/></g></g></g><g fill="#000000" fill-opacity="1"><g transform="translate(299.619094, 184.151515)"><g><path d="M 16.039062 -16.980469 L 15.566406 -15.378906 C 14.089844 -16.667969 12.171875 -17.453125 9.96875 -17.453125 C 4.875 -17.453125 1.070312 -13.617188 1.070312 -8.492188 C 1.070312 -3.363281 4.875 0.503906 9.96875 0.503906 C 12.140625 0.503906 14.027344 -0.25 15.472656 -1.539062 L 15.882812 0 L 19.464844 0 L 19.464844 -16.980469 Z M 10.347656 -3.835938 C 7.671875 -3.835938 5.722656 -5.847656 5.722656 -8.492188 C 5.722656 -11.164062 7.671875 -13.144531 10.347656 -13.144531 C 13.019531 -13.144531 14.96875 -11.164062 14.96875 -8.492188 C 14.96875 -5.816406 13.019531 -3.835938 10.347656 -3.835938 Z M 10.347656 -3.835938 "/></g></g></g><g fill="#000000" fill-opacity="1"><g transform="translate(326.755117, 184.151515)"><g><path d="M 2.203125 0 L 6.792969 0 L 6.792969 -23.082031 L 2.203125 -23.082031 Z M 2.203125 0 "/></g></g></g></svg>