<svg xmlns="http://www.w3.org/2000/svg" xmlns:xlink="http://www.w3.org/1999/xlink" width="500" zoomAndPan="magnify" viewBox="0 0 375 374.999991" height="500" preserveAspectRatio="xMidYMid meet" version="1.0"><defs><clipPath id="f28fa51b32"><path d="M 7.21875 137 L 155 137 L 155 259 L 7.21875 259 Z M 7.21875 137 " clip-rule="nonzero"/></clipPath><clipPath id="b439b9be61"><path d="M 130 116 L 367.96875 116 L 367.96875 259 L 130 259 Z M 130 116 " clip-rule="nonzero"/></clipPath></defs><g clip-path="url(#f28fa51b32)"><path fill="#5225bf" d="M 154.632812 151.753906 C 146.023438 161.46875 139.101562 172.257812 133.859375 184.125 C 129.402344 181.511719 124.683594 179.527344 119.695312 178.167969 C 114.710938 176.8125 109.632812 176.128906 104.464844 176.121094 C 103.246094 176.121094 102.03125 176.15625 100.816406 176.230469 C 99.601562 176.304688 98.390625 176.414062 97.183594 176.5625 C 95.976562 176.710938 94.773438 176.898438 93.578125 177.121094 C 92.378906 177.34375 91.191406 177.605469 90.011719 177.902344 C 88.832031 178.199219 87.660156 178.53125 86.503906 178.902344 C 85.34375 179.269531 84.195312 179.675781 83.0625 180.117188 C 81.929688 180.558594 80.808594 181.03125 79.703125 181.542969 C 78.601562 182.050781 77.511719 182.597656 76.441406 183.175781 C 75.371094 183.75 74.320312 184.363281 73.285156 185.003906 C 72.253906 185.648438 71.242188 186.324219 70.253906 187.027344 C 69.261719 187.734375 68.292969 188.46875 67.347656 189.234375 C 66.40625 190 65.484375 190.796875 64.589844 191.617188 C 63.695312 192.441406 62.824219 193.289062 61.984375 194.167969 C 61.140625 195.042969 60.328125 195.945312 59.542969 196.875 C 58.753906 197.800781 58 198.75 57.273438 199.726562 C 56.546875 200.699219 55.851562 201.695312 55.183594 202.714844 C 54.519531 203.730469 53.886719 204.769531 53.289062 205.824219 C 52.6875 206.882812 52.121094 207.957031 51.589844 209.046875 C 51.054688 210.140625 50.558594 211.246094 50.09375 212.371094 C 49.628906 213.492188 49.199219 214.628906 48.808594 215.777344 C 48.414062 216.925781 48.054688 218.085938 47.734375 219.257812 C 47.414062 220.429688 47.128906 221.609375 46.882812 222.800781 C 46.636719 223.988281 46.425781 225.183594 46.253906 226.386719 C 46.078125 227.589844 45.945312 228.796875 45.847656 230.007812 C 45.75 231.21875 45.6875 232.429688 45.667969 233.644531 C 45.644531 234.859375 45.660156 236.070312 45.714844 237.285156 C 45.769531 238.5 45.859375 239.710938 45.988281 240.917969 C 46.117188 242.125 46.285156 243.328125 46.488281 244.523438 C 46.691406 245.722656 46.933594 246.910156 47.210938 248.09375 C 47.488281 249.277344 47.804688 250.449219 48.15625 251.613281 C 48.503906 252.773438 48.890625 253.925781 49.316406 255.0625 C 49.738281 256.203125 50.195312 257.328125 50.6875 258.4375 L 10.148438 258.4375 C 9.699219 256.65625 9.300781 254.863281 8.957031 253.058594 C 8.609375 251.257812 8.316406 249.445312 8.074219 247.621094 C 7.832031 245.800781 7.640625 243.976562 7.5 242.144531 C 7.363281 240.3125 7.277344 238.480469 7.242188 236.644531 C 7.207031 234.804688 7.226562 232.96875 7.296875 231.136719 C 7.367188 229.300781 7.488281 227.46875 7.660156 225.640625 C 7.835938 223.8125 8.0625 221.988281 8.339844 220.171875 C 8.617188 218.359375 8.949219 216.550781 9.328125 214.753906 C 9.707031 212.957031 10.140625 211.171875 10.621094 209.398438 C 11.105469 207.628906 11.636719 205.871094 12.21875 204.128906 C 12.800781 202.386719 13.433594 200.660156 14.113281 198.953125 C 14.792969 197.246094 15.523438 195.5625 16.296875 193.894531 C 17.074219 192.230469 17.898438 190.589844 18.769531 188.96875 C 19.636719 187.351562 20.554688 185.757812 21.511719 184.191406 C 22.472656 182.625 23.476562 181.085938 24.527344 179.578125 C 25.574219 178.066406 26.664062 176.589844 27.796875 175.140625 C 28.929688 173.691406 30.101562 172.277344 31.3125 170.894531 C 32.523438 169.511719 33.777344 168.167969 35.066406 166.855469 C 36.355469 165.546875 37.679688 164.273438 39.042969 163.035156 C 40.402344 161.800781 41.800781 160.605469 43.230469 159.449219 C 44.660156 158.289062 46.121094 157.175781 47.613281 156.101562 C 49.105469 155.027344 50.628906 153.996094 52.179688 153.007812 C 53.734375 152.023438 55.3125 151.078125 56.917969 150.179688 C 58.523438 149.28125 60.152344 148.429688 61.804688 147.625 C 63.460938 146.820312 65.136719 146.058594 66.832031 145.347656 C 68.53125 144.640625 70.246094 143.976562 71.980469 143.363281 C 73.714844 142.75 75.464844 142.183594 77.234375 141.671875 C 79 141.15625 80.78125 140.691406 82.574219 140.277344 C 84.367188 139.863281 86.171875 139.503906 87.984375 139.191406 C 89.796875 138.878906 91.621094 138.621094 93.449219 138.410156 C 95.277344 138.203125 97.109375 138.046875 98.949219 137.941406 C 100.785156 137.839844 102.625 137.785156 104.464844 137.785156 C 108.867188 137.785156 113.246094 138.082031 117.609375 138.675781 C 121.96875 139.269531 126.269531 140.15625 130.507812 141.339844 C 134.746094 142.519531 138.886719 143.980469 142.925781 145.722656 C 146.964844 147.46875 150.867188 149.476562 154.632812 151.753906 Z M 154.632812 151.753906 " fill-opacity="1" fill-rule="nonzero"/></g><g clip-path="url(#b439b9be61)"><path fill="#5225bf" d="M 249.230469 116.335938 C 247.039062 116.339844 244.851562 116.402344 242.664062 116.527344 C 240.476562 116.652344 238.296875 116.835938 236.121094 117.078125 C 233.941406 117.324219 231.773438 117.628906 229.613281 117.992188 C 227.453125 118.355469 225.308594 118.777344 223.171875 119.261719 C 221.035156 119.742188 218.914062 120.285156 216.808594 120.882812 C 214.699219 121.484375 212.613281 122.140625 210.542969 122.855469 C 208.472656 123.570312 206.425781 124.339844 204.398438 125.167969 C 202.371094 125.996094 200.367188 126.878906 198.390625 127.816406 C 196.410156 128.753906 194.460938 129.746094 192.535156 130.792969 C 190.613281 131.839844 188.71875 132.9375 186.859375 134.085938 C 184.996094 135.238281 183.167969 136.4375 181.371094 137.691406 C 179.574219 138.941406 177.816406 140.242188 176.089844 141.589844 C 174.367188 142.9375 172.683594 144.332031 171.035156 145.773438 C 169.390625 147.214844 167.785156 148.703125 166.21875 150.230469 C 164.65625 151.761719 163.132812 153.332031 161.65625 154.949219 C 160.179688 156.5625 158.75 158.214844 157.363281 159.90625 C 155.976562 161.601562 154.640625 163.332031 153.351562 165.097656 C 152.0625 166.863281 150.820312 168.664062 149.632812 170.5 C 148.441406 172.335938 147.304688 174.203125 146.21875 176.097656 C 145.132812 177.996094 144.097656 179.921875 143.117188 181.878906 C 142.140625 183.832031 141.214844 185.8125 140.34375 187.820312 C 139.476562 189.824219 138.660156 191.855469 137.902344 193.90625 C 137.148438 195.957031 136.445312 198.027344 135.804688 200.117188 C 135.160156 202.207031 134.578125 204.3125 134.050781 206.433594 C 133.523438 208.554688 133.058594 210.6875 132.648438 212.835938 C 132.242188 214.984375 131.894531 217.140625 131.605469 219.308594 C 131.316406 221.476562 131.089844 223.648438 130.921875 225.828125 C 130.753906 228.007812 130.648438 230.1875 130.601562 232.375 C 130.554688 234.558594 130.566406 236.742188 130.640625 238.929688 C 130.714844 241.113281 130.851562 243.292969 131.046875 245.46875 C 131.242188 247.648438 131.496094 249.816406 131.8125 251.980469 C 132.128906 254.144531 132.503906 256.296875 132.9375 258.4375 L 178.773438 258.4375 C 178.300781 257.046875 177.875 255.644531 177.488281 254.230469 C 177.097656 252.816406 176.753906 251.390625 176.453125 249.953125 C 176.148438 248.519531 175.890625 247.078125 175.675781 245.625 C 175.457031 244.175781 175.285156 242.71875 175.152344 241.257812 C 175.023438 239.796875 174.9375 238.332031 174.894531 236.867188 C 174.851562 235.398438 174.851562 233.933594 174.894531 232.46875 C 174.941406 231 175.027344 229.539062 175.15625 228.078125 C 175.289062 226.617188 175.464844 225.160156 175.679688 223.710938 C 175.898438 222.257812 176.160156 220.816406 176.460938 219.378906 C 176.765625 217.945312 177.109375 216.519531 177.496094 215.105469 C 177.886719 213.691406 178.316406 212.289062 178.785156 210.898438 C 179.257812 209.507812 179.769531 208.132812 180.320312 206.773438 C 180.875 205.417969 181.46875 204.074219 182.101562 202.75 C 182.730469 201.425781 183.402344 200.121094 184.113281 198.835938 C 184.824219 197.554688 185.570312 196.289062 186.355469 195.050781 C 187.140625 193.808594 187.960938 192.59375 188.820312 191.402344 C 189.675781 190.210938 190.566406 189.046875 191.492188 187.90625 C 192.421875 186.769531 193.378906 185.65625 194.371094 184.574219 C 195.363281 183.492188 196.386719 182.441406 197.441406 181.417969 C 198.496094 180.398438 199.582031 179.410156 200.695312 178.449219 C 201.808594 177.492188 202.949219 176.570312 204.117188 175.679688 C 205.289062 174.789062 206.480469 173.933594 207.699219 173.117188 C 208.917969 172.296875 210.164062 171.515625 211.429688 170.769531 C 212.695312 170.023438 213.980469 169.316406 215.289062 168.644531 C 216.597656 167.976562 217.921875 167.34375 219.269531 166.753906 C 220.613281 166.164062 221.976562 165.613281 223.351562 165.101562 C 224.730469 164.589844 226.121094 164.121094 227.527344 163.691406 C 228.933594 163.265625 230.351562 162.878906 231.78125 162.53125 C 233.210938 162.1875 234.648438 161.886719 236.09375 161.628906 C 237.539062 161.367188 238.992188 161.152344 240.453125 160.976562 C 241.914062 160.804688 243.375 160.675781 244.84375 160.585938 C 246.3125 160.5 247.78125 160.457031 249.25 160.457031 C 250.71875 160.457031 252.1875 160.5 253.65625 160.585938 C 255.125 160.675781 256.585938 160.804688 258.046875 160.976562 C 259.507812 161.152344 260.960938 161.367188 262.40625 161.628906 C 263.851562 161.886719 265.289062 162.1875 266.71875 162.53125 C 268.148438 162.878906 269.566406 163.265625 270.972656 163.691406 C 272.378906 164.121094 273.769531 164.589844 275.148438 165.101562 C 276.523438 165.613281 277.886719 166.164062 279.230469 166.753906 C 280.578125 167.34375 281.902344 167.976562 283.210938 168.644531 C 284.519531 169.316406 285.804688 170.023438 287.070312 170.769531 C 288.335938 171.515625 289.582031 172.296875 290.800781 173.117188 C 292.019531 173.933594 293.210938 174.789062 294.382812 175.679688 C 295.550781 176.570312 296.691406 177.492188 297.804688 178.449219 C 298.917969 179.410156 300.003906 180.398438 301.058594 181.417969 C 302.113281 182.441406 303.136719 183.492188 304.128906 184.574219 C 305.121094 185.65625 306.078125 186.769531 307.007812 187.90625 C 307.933594 189.046875 308.824219 190.210938 309.679688 191.402344 C 310.539062 192.59375 311.359375 193.808594 312.144531 195.050781 C 312.929688 196.289062 313.675781 197.554688 314.386719 198.835938 C 315.097656 200.121094 315.769531 201.425781 316.398438 202.75 C 317.03125 204.074219 317.625 205.417969 318.179688 206.773438 C 318.730469 208.132812 319.242188 209.507812 319.714844 210.898438 C 320.183594 212.289062 320.613281 213.691406 321.003906 215.105469 C 321.390625 216.519531 321.734375 217.945312 322.039062 219.378906 C 322.34375 220.816406 322.601562 222.257812 322.820312 223.710938 C 323.035156 225.160156 323.210938 226.617188 323.34375 228.078125 C 323.472656 229.539062 323.558594 231 323.605469 232.46875 C 323.648438 233.933594 323.648438 235.398438 323.605469 236.867188 C 323.5625 238.332031 323.476562 239.796875 323.347656 241.257812 C 323.214844 242.71875 323.042969 244.175781 322.824219 245.625 C 322.609375 247.078125 322.351562 248.519531 322.046875 249.953125 C 321.746094 251.390625 321.402344 252.816406 321.015625 254.230469 C 320.625 255.644531 320.199219 257.046875 319.726562 258.4375 L 365.605469 258.4375 C 366.039062 256.296875 366.414062 254.140625 366.730469 251.976562 C 367.042969 249.8125 367.300781 247.644531 367.496094 245.464844 C 367.691406 243.289062 367.824219 241.105469 367.898438 238.921875 C 367.972656 236.734375 367.988281 234.550781 367.9375 232.363281 C 367.890625 230.179688 367.785156 227.996094 367.617188 225.816406 C 367.449219 223.632812 367.21875 221.460938 366.933594 219.292969 C 366.644531 217.125 366.296875 214.96875 365.886719 212.820312 C 365.480469 210.671875 365.011719 208.535156 364.484375 206.414062 C 363.957031 204.289062 363.375 202.183594 362.730469 200.09375 C 362.085938 198.003906 361.386719 195.933594 360.628906 193.882812 C 359.871094 191.832031 359.054688 189.800781 358.183594 187.792969 C 357.3125 185.789062 356.386719 183.808594 355.40625 181.851562 C 354.425781 179.898438 353.394531 177.96875 352.304688 176.070312 C 351.21875 174.171875 350.078125 172.304688 348.890625 170.46875 C 347.699219 168.636719 346.457031 166.832031 345.167969 165.066406 C 343.875 163.300781 342.539062 161.570312 341.152344 159.875 C 339.765625 158.183594 338.332031 156.53125 336.855469 154.917969 C 335.375 153.300781 333.855469 151.730469 332.289062 150.199219 C 330.722656 148.671875 329.117188 147.183594 327.46875 145.742188 C 325.820312 144.300781 324.136719 142.90625 322.410156 141.558594 C 320.683594 140.210938 318.921875 138.910156 317.125 137.660156 C 315.328125 136.410156 313.5 135.207031 311.636719 134.058594 C 309.773438 132.910156 307.878906 131.8125 305.953125 130.765625 C 304.027344 129.71875 302.078125 128.730469 300.097656 127.792969 C 298.117188 126.855469 296.113281 125.972656 294.085938 125.144531 C 292.058594 124.316406 290.007812 123.546875 287.9375 122.832031 C 285.863281 122.121094 283.777344 121.464844 281.667969 120.863281 C 279.5625 120.265625 277.4375 119.726562 275.300781 119.246094 C 273.164062 118.765625 271.015625 118.34375 268.855469 117.980469 C 266.691406 117.617188 264.523438 117.3125 262.347656 117.070312 C 260.167969 116.828125 257.984375 116.644531 255.796875 116.523438 C 253.609375 116.402344 251.421875 116.339844 249.230469 116.335938 Z M 249.230469 116.335938 " fill-opacity="1" fill-rule="nonzero"/></g></svg>