<svg xmlns="http://www.w3.org/2000/svg" xmlns:xlink="http://www.w3.org/1999/xlink" width="500" zoomAndPan="magnify" viewBox="0 0 375 374.999991" height="500" preserveAspectRatio="xMidYMid meet" version="1.0"><defs><g/><clipPath id="24f2ef27a6"><path d="M 9.796875 136 L 108 136 L 108 217.832031 L 9.796875 217.832031 Z M 9.796875 136 " clip-rule="nonzero"/></clipPath><clipPath id="ee76b75813"><path d="M 91 122 L 249.796875 122 L 249.796875 217.832031 L 91 217.832031 Z M 91 122 " clip-rule="nonzero"/></clipPath></defs><rect x="-37.5" width="450" fill="#ffffff" y="-37.499999" height="449.999989" fill-opacity="1"/><rect x="-37.5" width="450" fill="#ffffff" y="-37.499999" height="449.999989" fill-opacity="1"/><rect x="-37.5" width="450" fill="#ffffff" y="-37.499999" height="449.999989" fill-opacity="1"/><g clip-path="url(#24f2ef27a6)"><path fill="#5225bf" d="M 107.867188 146.078125 C 102.140625 152.554688 97.535156 159.746094 94.050781 167.660156 C 91.085938 165.917969 87.945312 164.59375 84.628906 163.6875 C 81.308594 162.78125 77.933594 162.328125 74.492188 162.324219 C 73.683594 162.320312 72.875 162.347656 72.066406 162.394531 C 71.257812 162.445312 70.453125 162.519531 69.648438 162.617188 C 68.84375 162.714844 68.046875 162.839844 67.25 162.988281 C 66.453125 163.136719 65.664062 163.3125 64.878906 163.507812 C 64.09375 163.707031 63.316406 163.929688 62.542969 164.175781 C 61.773438 164.421875 61.007812 164.691406 60.253906 164.984375 C 59.5 165.28125 58.757812 165.597656 58.019531 165.9375 C 57.285156 166.277344 56.5625 166.640625 55.851562 167.023438 C 55.136719 167.410156 54.4375 167.816406 53.75 168.246094 C 53.066406 168.671875 52.390625 169.121094 51.734375 169.59375 C 51.074219 170.0625 50.429688 170.554688 49.800781 171.066406 C 49.171875 171.574219 48.5625 172.105469 47.964844 172.652344 C 47.371094 173.203125 46.792969 173.769531 46.230469 174.351562 C 45.671875 174.9375 45.128906 175.539062 44.605469 176.15625 C 44.085938 176.777344 43.582031 177.410156 43.097656 178.058594 C 42.613281 178.707031 42.152344 179.371094 41.710938 180.050781 C 41.265625 180.730469 40.847656 181.421875 40.445312 182.125 C 40.046875 182.828125 39.671875 183.546875 39.316406 184.273438 C 38.960938 185 38.628906 185.738281 38.320312 186.488281 C 38.011719 187.234375 37.726562 187.992188 37.464844 188.757812 C 37.203125 189.527344 36.964844 190.300781 36.753906 191.082031 C 36.539062 191.863281 36.351562 192.648438 36.1875 193.441406 C 36.019531 194.234375 35.882812 195.03125 35.765625 195.832031 C 35.652344 196.632812 35.5625 197.4375 35.496094 198.246094 C 35.429688 199.050781 35.390625 199.859375 35.375 200.671875 C 35.363281 201.480469 35.371094 202.289062 35.410156 203.097656 C 35.445312 203.90625 35.503906 204.714844 35.589844 205.519531 C 35.675781 206.324219 35.785156 207.125 35.921875 207.925781 C 36.058594 208.722656 36.21875 209.515625 36.402344 210.304688 C 36.589844 211.09375 36.796875 211.875 37.03125 212.648438 C 37.265625 213.425781 37.523438 214.191406 37.804688 214.949219 C 38.085938 215.710938 38.390625 216.460938 38.71875 217.199219 L 11.746094 217.199219 C 11.449219 216.011719 11.183594 214.816406 10.953125 213.613281 C 10.722656 212.410156 10.527344 211.203125 10.367188 209.988281 C 10.207031 208.777344 10.078125 207.558594 9.984375 206.335938 C 9.894531 205.117188 9.835938 203.894531 9.8125 202.667969 C 9.789062 201.445312 9.800781 200.222656 9.847656 198.996094 C 9.894531 197.773438 9.976562 196.554688 10.09375 195.335938 C 10.207031 194.117188 10.359375 192.902344 10.542969 191.691406 C 10.730469 190.480469 10.949219 189.277344 11.203125 188.078125 C 11.453125 186.878906 11.742188 185.691406 12.0625 184.507812 C 12.382812 183.328125 12.738281 182.15625 13.125 180.992188 C 13.511719 179.832031 13.933594 178.683594 14.386719 177.542969 C 14.835938 176.40625 15.320312 175.28125 15.839844 174.171875 C 16.355469 173.0625 16.902344 171.96875 17.480469 170.886719 C 18.058594 169.808594 18.667969 168.746094 19.308594 167.703125 C 19.945312 166.660156 20.613281 165.632812 21.3125 164.625 C 22.007812 163.621094 22.734375 162.632812 23.488281 161.667969 C 24.242188 160.703125 25.019531 159.757812 25.828125 158.839844 C 26.632812 157.917969 27.464844 157.019531 28.324219 156.144531 C 29.179688 155.273438 30.0625 154.421875 30.96875 153.597656 C 31.875 152.773438 32.804688 151.976562 33.753906 151.207031 C 34.707031 150.433594 35.679688 149.691406 36.671875 148.976562 C 37.664062 148.261719 38.679688 147.574219 39.710938 146.914062 C 40.742188 146.257812 41.792969 145.628906 42.859375 145.027344 C 43.929688 144.429688 45.011719 143.863281 46.113281 143.324219 C 47.214844 142.789062 48.328125 142.28125 49.457031 141.808594 C 50.585938 141.335938 51.726562 140.894531 52.882812 140.484375 C 54.035156 140.074219 55.203125 139.699219 56.378906 139.355469 C 57.550781 139.011719 58.738281 138.703125 59.929688 138.425781 C 61.121094 138.152344 62.324219 137.910156 63.53125 137.703125 C 64.738281 137.496094 65.949219 137.320312 67.164062 137.183594 C 68.382812 137.042969 69.601562 136.941406 70.824219 136.871094 C 72.046875 136.800781 73.269531 136.765625 74.492188 136.765625 C 80.378906 136.761719 86.152344 137.554688 91.820312 139.132812 C 97.488281 140.714844 102.835938 143.027344 107.867188 146.078125 Z M 107.867188 146.078125 " fill-opacity="1" fill-rule="nonzero"/></g><g clip-path="url(#ee76b75813)"><path fill="#5225bf" d="M 170.804688 122.464844 C 169.347656 122.46875 167.890625 122.511719 166.433594 122.59375 C 164.980469 122.675781 163.527344 122.796875 162.082031 122.960938 C 160.632812 123.125 159.191406 123.328125 157.753906 123.570312 C 156.316406 123.8125 154.886719 124.09375 153.464844 124.414062 C 152.046875 124.738281 150.632812 125.097656 149.234375 125.496094 C 147.832031 125.898438 146.441406 126.335938 145.066406 126.8125 C 143.6875 127.289062 142.324219 127.800781 140.976562 128.355469 C 139.628906 128.90625 138.296875 129.496094 136.980469 130.121094 C 135.664062 130.746094 134.367188 131.40625 133.085938 132.105469 C 131.808594 132.800781 130.546875 133.535156 129.308594 134.300781 C 128.070312 135.066406 126.851562 135.867188 125.65625 136.703125 C 124.464844 137.535156 123.292969 138.402344 122.144531 139.300781 C 121 140.199219 119.878906 141.128906 118.78125 142.089844 C 117.6875 143.050781 116.617188 144.042969 115.578125 145.0625 C 114.539062 146.082031 113.527344 147.128906 112.542969 148.207031 C 111.558594 149.28125 110.609375 150.386719 109.6875 151.511719 C 108.765625 152.640625 107.875 153.796875 107.015625 154.972656 C 106.160156 156.152344 105.335938 157.351562 104.542969 158.574219 C 103.75 159.796875 102.992188 161.042969 102.269531 162.308594 C 101.546875 163.574219 100.863281 164.855469 100.210938 166.160156 C 99.558594 167.464844 98.941406 168.785156 98.363281 170.121094 C 97.785156 171.457031 97.246094 172.8125 96.742188 174.179688 C 96.238281 175.546875 95.769531 176.925781 95.34375 178.320312 C 94.914062 179.710938 94.527344 181.117188 94.175781 182.53125 C 93.828125 183.945312 93.515625 185.367188 93.246094 186.800781 C 92.972656 188.230469 92.742188 189.667969 92.550781 191.113281 C 92.359375 192.558594 92.207031 194.007812 92.09375 195.460938 C 91.984375 196.910156 91.914062 198.367188 91.882812 199.824219 C 91.851562 201.28125 91.859375 202.738281 91.910156 204.195312 C 91.957031 205.648438 92.046875 207.101562 92.175781 208.554688 C 92.308594 210.007812 92.476562 211.453125 92.6875 212.894531 C 92.898438 214.335938 93.144531 215.773438 93.4375 217.199219 L 123.929688 217.199219 C 123.617188 216.273438 123.332031 215.339844 123.074219 214.394531 C 122.816406 213.453125 122.585938 212.5 122.386719 211.542969 C 122.183594 210.585938 122.011719 209.625 121.867188 208.65625 C 121.722656 207.691406 121.609375 206.71875 121.523438 205.746094 C 121.4375 204.773438 121.378906 203.796875 121.347656 202.820312 C 121.320312 201.839844 121.320312 200.863281 121.351562 199.886719 C 121.378906 198.910156 121.4375 197.933594 121.523438 196.960938 C 121.613281 195.984375 121.726562 195.015625 121.871094 194.046875 C 122.015625 193.082031 122.191406 192.117188 122.390625 191.160156 C 122.59375 190.203125 122.824219 189.253906 123.082031 188.3125 C 123.339844 187.367188 123.625 186.433594 123.9375 185.507812 C 124.25 184.582031 124.59375 183.664062 124.960938 182.757812 C 125.328125 181.851562 125.722656 180.957031 126.144531 180.074219 C 126.5625 179.191406 127.011719 178.324219 127.484375 177.464844 C 127.953125 176.609375 128.453125 175.769531 128.972656 174.941406 C 129.496094 174.113281 130.042969 173.304688 130.613281 172.511719 C 131.183594 171.714844 131.777344 170.9375 132.394531 170.179688 C 133.007812 169.421875 133.648438 168.679688 134.308594 167.957031 C 134.96875 167.238281 135.648438 166.535156 136.351562 165.855469 C 137.050781 165.171875 137.773438 164.515625 138.515625 163.875 C 139.253906 163.238281 140.015625 162.621094 140.792969 162.027344 C 141.570312 161.433594 142.363281 160.863281 143.175781 160.320312 C 143.984375 159.773438 144.8125 159.25 145.65625 158.753906 C 146.496094 158.257812 147.351562 157.785156 148.222656 157.339844 C 149.09375 156.890625 149.976562 156.472656 150.871094 156.078125 C 151.765625 155.683594 152.671875 155.316406 153.585938 154.976562 C 154.503906 154.636719 155.429688 154.320312 156.367188 154.035156 C 157.300781 153.75 158.242188 153.492188 159.195312 153.261719 C 160.144531 153.035156 161.101562 152.832031 162.0625 152.660156 C 163.027344 152.488281 163.992188 152.34375 164.964844 152.226562 C 165.9375 152.109375 166.910156 152.023438 167.886719 151.964844 C 168.863281 151.910156 169.839844 151.878906 170.816406 151.878906 C 171.792969 151.878906 172.773438 151.910156 173.746094 151.964844 C 174.722656 152.023438 175.699219 152.109375 176.667969 152.226562 C 177.640625 152.34375 178.605469 152.488281 179.570312 152.660156 C 180.53125 152.832031 181.488281 153.035156 182.4375 153.261719 C 183.390625 153.492188 184.332031 153.75 185.265625 154.035156 C 186.203125 154.320312 187.128906 154.636719 188.046875 154.976562 C 188.960938 155.316406 189.867188 155.683594 190.761719 156.078125 C 191.65625 156.472656 192.539062 156.890625 193.410156 157.339844 C 194.28125 157.785156 195.136719 158.257812 195.980469 158.753906 C 196.820312 159.25 197.648438 159.773438 198.457031 160.320312 C 199.269531 160.863281 200.0625 161.433594 200.839844 162.027344 C 201.617188 162.621094 202.378906 163.238281 203.117188 163.875 C 203.859375 164.515625 204.582031 165.171875 205.28125 165.855469 C 205.984375 166.535156 206.664062 167.238281 207.324219 167.957031 C 207.984375 168.679688 208.625 169.421875 209.242188 170.179688 C 209.855469 170.9375 210.449219 171.714844 211.019531 172.511719 C 211.589844 173.304688 212.136719 174.113281 212.660156 174.941406 C 213.179688 175.769531 213.679688 176.609375 214.152344 177.464844 C 214.625 178.324219 215.070312 179.191406 215.492188 180.074219 C 215.910156 180.957031 216.304688 181.851562 216.671875 182.757812 C 217.039062 183.664062 217.382812 184.582031 217.695312 185.507812 C 218.007812 186.433594 218.292969 187.367188 218.550781 188.3125 C 218.808594 189.253906 219.039062 190.203125 219.242188 191.160156 C 219.441406 192.117188 219.617188 193.082031 219.761719 194.046875 C 219.90625 195.015625 220.019531 195.984375 220.109375 196.960938 C 220.195312 197.933594 220.253906 198.910156 220.28125 199.886719 C 220.3125 200.863281 220.3125 201.839844 220.285156 202.820312 C 220.253906 203.796875 220.199219 204.773438 220.109375 205.746094 C 220.023438 206.71875 219.910156 207.691406 219.765625 208.65625 C 219.621094 209.625 219.449219 210.585938 219.246094 211.542969 C 219.046875 212.5 218.816406 213.453125 218.558594 214.394531 C 218.300781 215.339844 218.015625 216.273438 217.703125 217.199219 L 248.222656 217.199219 C 248.511719 215.769531 248.761719 214.335938 248.972656 212.894531 C 249.183594 211.449219 249.351562 210.003906 249.484375 208.550781 C 249.613281 207.097656 249.703125 205.644531 249.75 204.1875 C 249.800781 202.730469 249.808594 201.273438 249.777344 199.816406 C 249.746094 198.359375 249.675781 196.90625 249.5625 195.449219 C 249.453125 193.996094 249.300781 192.546875 249.109375 191.101562 C 248.917969 189.660156 248.683594 188.21875 248.414062 186.789062 C 248.140625 185.355469 247.832031 183.933594 247.480469 182.515625 C 247.128906 181.101562 246.742188 179.699219 246.3125 178.304688 C 245.882812 176.910156 245.417969 175.53125 244.914062 174.164062 C 244.410156 172.796875 243.867188 171.441406 243.289062 170.105469 C 242.710938 168.765625 242.09375 167.445312 241.441406 166.144531 C 240.789062 164.839844 240.101562 163.554688 239.378906 162.289062 C 238.65625 161.023438 237.898438 159.777344 237.105469 158.554688 C 236.3125 157.332031 235.488281 156.128906 234.628906 154.953125 C 233.769531 153.773438 232.878906 152.621094 231.957031 151.492188 C 231.035156 150.363281 230.082031 149.261719 229.097656 148.1875 C 228.113281 147.109375 227.101562 146.0625 226.058594 145.042969 C 225.019531 144.023438 223.949219 143.03125 222.855469 142.070312 C 221.757812 141.109375 220.636719 140.179688 219.488281 139.28125 C 218.339844 138.382812 217.167969 137.515625 215.972656 136.683594 C 214.777344 135.847656 213.558594 135.046875 212.320312 134.28125 C 211.082031 133.515625 209.820312 132.78125 208.539062 132.085938 C 207.257812 131.390625 205.960938 130.726562 204.644531 130.101562 C 203.328125 129.476562 201.992188 128.890625 200.644531 128.339844 C 199.296875 127.785156 197.929688 127.273438 196.554688 126.796875 C 195.175781 126.320312 193.785156 125.882812 192.382812 125.484375 C 190.980469 125.085938 189.570312 124.726562 188.148438 124.40625 C 186.726562 124.085938 185.296875 123.804688 183.859375 123.5625 C 182.421875 123.320312 180.976562 123.117188 179.527344 122.957031 C 178.082031 122.792969 176.628906 122.671875 175.171875 122.589844 C 173.71875 122.507812 172.261719 122.46875 170.804688 122.464844 Z M 170.804688 122.464844 " fill-opacity="1" fill-rule="nonzero"/></g><g fill="#000000" fill-opacity="1"><g transform="translate(257.120731, 209.192647)"><g><path d="M 13.96875 0.6875 C 21.125 0.6875 26.480469 -4.585938 26.480469 -11.570312 C 26.480469 -18.554688 21.125 -23.78125 13.96875 -23.78125 C 6.8125 -23.78125 1.457031 -18.554688 1.457031 -11.570312 C 1.457031 -4.585938 6.8125 0.6875 13.96875 0.6875 Z M 13.96875 -5.226562 C 10.371094 -5.226562 7.796875 -7.796875 7.796875 -11.570312 C 7.796875 -15.296875 10.371094 -17.910156 13.96875 -17.910156 C 17.566406 -17.910156 20.136719 -15.296875 20.136719 -11.570312 C 20.136719 -7.796875 17.566406 -5.226562 13.96875 -5.226562 Z M 13.96875 -5.226562 "/></g></g></g><g fill="#000000" fill-opacity="1"><g transform="translate(292.508962, 209.192647)"><g><path d="M 16.152344 -23.652344 C 13.027344 -23.652344 10.242188 -22.324219 8.484375 -20.265625 L 7.285156 -23.136719 L 3 -23.136719 L 3 0 L 9.253906 0 L 9.253906 -12.125 C 9.253906 -15.855469 11.226562 -18.167969 14.441406 -18.167969 C 17.140625 -18.167969 18.46875 -16.496094 18.46875 -12.984375 L 18.46875 0 L 24.722656 0 L 24.722656 -14.011719 C 24.722656 -19.882812 21.425781 -23.652344 16.152344 -23.652344 Z M 16.152344 -23.652344 "/></g></g></g><g fill="#000000" fill-opacity="1"><g transform="translate(327.383115, 209.192647)"><g><path d="M 13.539062 0.6875 C 20.09375 0.6875 24.421875 -3.511719 24.421875 -9.769531 L 24.421875 -23.136719 L 18.167969 -23.136719 L 18.167969 -10.453125 C 18.167969 -7.199219 16.453125 -5.226562 13.539062 -5.226562 C 10.667969 -5.226562 8.914062 -7.15625 8.914062 -10.453125 L 8.914062 -23.136719 L 2.65625 -23.136719 L 2.65625 -9.769531 C 2.65625 -3.511719 7.027344 0.6875 13.539062 0.6875 Z M 13.539062 0.6875 "/></g></g></g><g fill="#000000" fill-opacity="1"><g transform="translate(82.051729, 268.246429)"><g><path d="M 23.34375 0 L 31.828125 0 L 24.046875 -13.253906 C 27.964844 -15.160156 30.472656 -18.875 30.472656 -23.496094 C 30.472656 -30.273438 25.203125 -35.140625 18.171875 -35.140625 L 4.015625 -35.140625 L 4.015625 0 L 11.597656 0 L 11.597656 -11.949219 L 16.464844 -11.949219 Z M 11.597656 -28.113281 L 17.671875 -28.113281 C 20.882812 -28.113281 22.742188 -26.15625 22.742188 -23.546875 C 22.742188 -20.882812 20.882812 -18.976562 17.671875 -18.976562 L 11.597656 -18.976562 Z M 11.597656 -28.113281 "/></g></g></g><g fill="#000000" fill-opacity="1"><g transform="translate(123.916147, 268.246429)"><g><path d="M 29.820312 -13.605469 C 29.820312 -21.4375 24.097656 -27.863281 15.765625 -27.863281 C 7.730469 -27.863281 1.707031 -21.6875 1.707031 -13.554688 C 1.707031 -5.421875 7.78125 0.804688 15.765625 0.804688 C 22.089844 0.804688 27.261719 -2.960938 29.21875 -8.886719 L 21.535156 -8.886719 C 20.433594 -6.929688 18.324219 -5.722656 15.765625 -5.722656 C 12.199219 -5.722656 9.789062 -7.78125 9.136719 -11.496094 L 29.667969 -11.496094 C 29.769531 -12.199219 29.820312 -12.902344 29.820312 -13.605469 Z M 15.765625 -21.585938 C 19.078125 -21.585938 21.4375 -19.78125 22.492188 -16.464844 L 9.335938 -16.464844 C 10.191406 -19.679688 12.5 -21.585938 15.765625 -21.585938 Z M 15.765625 -21.585938 "/></g></g></g><g fill="#000000" fill-opacity="1"><g transform="translate(164.124191, 268.246429)"><g><path d="M 18.925781 -27.710938 C 15.261719 -27.710938 12 -26.15625 9.941406 -23.746094 L 8.535156 -27.109375 L 3.515625 -27.109375 L 3.515625 0 L 10.84375 0 L 10.84375 -14.207031 C 10.84375 -18.574219 13.152344 -21.285156 16.917969 -21.285156 C 20.082031 -21.285156 21.636719 -19.328125 21.636719 -15.210938 L 21.636719 0 L 28.96875 0 L 28.96875 -16.417969 C 28.96875 -23.292969 25.101562 -27.710938 18.925781 -27.710938 Z M 18.925781 -27.710938 "/></g></g></g><g fill="#000000" fill-opacity="1"><g transform="translate(204.984739, 268.246429)"><g><path d="M 16.769531 -6.527344 C 14.058594 -6.527344 12.550781 -8.03125 12.550781 -10.644531 L 12.550781 -21.1875 L 19.929688 -21.1875 L 19.929688 -27.109375 L 12.449219 -27.109375 L 12.449219 -34.136719 L 11.042969 -34.136719 L 0.351562 -22.792969 L 0.351562 -21.1875 L 5.222656 -21.1875 L 5.222656 -9.640625 C 5.222656 -3.664062 8.886719 0 14.859375 0 L 20.082031 0 L 20.082031 -6.527344 Z M 16.769531 -6.527344 "/></g></g></g><g fill="#000000" fill-opacity="1"><g transform="translate(235.254557, 268.246429)"><g><path d="M 25.601562 -27.109375 L 24.851562 -24.550781 C 22.492188 -26.609375 19.429688 -27.863281 15.914062 -27.863281 C 7.78125 -27.863281 1.707031 -21.738281 1.707031 -13.554688 C 1.707031 -5.371094 7.78125 0.804688 15.914062 0.804688 C 19.378906 0.804688 22.390625 -0.402344 24.699219 -2.460938 L 25.351562 0 L 31.074219 0 L 31.074219 -27.109375 Z M 16.515625 -6.125 C 12.25 -6.125 9.136719 -9.335938 9.136719 -13.554688 C 9.136719 -17.820312 12.25 -20.984375 16.515625 -20.984375 C 20.785156 -20.984375 23.898438 -17.820312 23.898438 -13.554688 C 23.898438 -9.289062 20.785156 -6.125 16.515625 -6.125 Z M 16.515625 -6.125 "/></g></g></g><g fill="#000000" fill-opacity="1"><g transform="translate(278.574592, 268.246429)"><g><path d="M 3.515625 0 L 10.84375 0 L 10.84375 -36.847656 L 3.515625 -36.847656 Z M 3.515625 0 "/></g></g></g></svg>